<mxfile host="app.diagrams.net" modified="2023-10-10T14:34:22.710Z" agent="Mozilla/5.0 (X11; Linux x86_64; rv:109.0) Gecko/20100101 Firefox/114.0" version="22.0.4" etag="NVyYwCb5nyp8Ojqcq2nE" type="github">
  <diagram name="PÃ¡gina-1" id="AebKi8EW-Pnt48Jh7yYN">
    <mxGraphModel>
      <root>
        <mxCell id="0" />
        <mxCell id="1" parent="0" />
      </root>
    </mxGraphModel>
  </diagram>
</mxfile>
